<svg width="1083" height="1080" viewBox="0 0 1083 1080" fill="none" xmlns="http://www.w3.org/2000/svg">
<path d="M541.809 0.634782L541.272 0.634783C470.274 0.634999 399.971 14.6043 334.378 41.7454C268.784 68.8866 209.185 108.668 158.982 158.818C108.779 208.968 68.9559 268.505 41.7865 334.029C14.6172 399.552 0.633483 469.78 0.6338 540.702C0.755773 676.683 52.2237 807.612 144.759 907.343C237.139 1006.91 363.66 1068.06 499.127 1078.64V875.781C363.026 855.328 258.009 737.456 258.009 595.972C258.009 533.536 278.463 475.695 313.011 428.797C293.175 437.536 270.842 439.849 251.668 430.457C241.531 425.492 233.255 416.097 226.579 403.899C219.901 391.697 214.797 376.641 211.03 360.273C203.495 327.538 201.285 289.462 202.572 258.242L202.596 257.659L203.18 257.635C207.086 257.475 211.101 257.36 215.2 257.325M541.809 0.634782L215.207 257.959M541.809 0.634782L541.809 0.634068C612.625 0.704511 682.739 14.672 748.167 41.7447C813.76 68.8859 873.36 108.667 923.563 158.817C973.766 208.967 1013.59 268.504 1040.76 334.028C1067.93 399.552 1081.91 469.779 1081.91 540.702C1081.87 676.759 1030.43 807.789 937.863 907.596C845.452 1007.23 718.854 1068.42 583.308 1078.98M541.809 0.634782L583.308 1078.98M215.2 257.325C215.201 257.325 215.201 257.325 215.202 257.325L215.207 257.959M215.2 257.325C215.2 257.325 215.2 257.325 215.2 257.325L215.207 257.959M215.2 257.325C245.924 256.964 281.346 259.875 311.401 267.562C326.428 271.405 340.136 276.448 351.25 282.888C362.361 289.327 370.919 297.186 375.581 306.68C384.983 325.837 382.661 348.147 373.91 367.962M215.207 257.959C276.58 257.238 356.663 269.591 375.012 306.959C384.467 326.224 381.95 348.769 372.871 368.729C373.217 368.473 373.563 368.217 373.91 367.962M373.91 367.962C373.736 368.356 373.559 368.749 373.38 369.141C373.024 369.405 372.668 369.67 372.313 369.936L498.999 316.835C498.601 316.684 498.204 316.531 497.808 316.376M373.91 367.962C409.763 341.607 452.008 323.48 497.808 316.376M497.808 316.376C498.228 316.311 498.648 316.246 499.069 316.183C499.478 316.338 499.888 316.491 500.299 316.641L541.272 118.392C587.231 160.667 642.668 232.163 628.293 274.173C621.388 294.338 603.843 308.447 583.472 316.183C583.892 316.246 584.313 316.311 584.733 316.376M497.808 316.376C477.765 308.513 460.517 294.432 453.652 274.379C449.999 263.707 450.796 251.217 454.71 237.876C458.626 224.53 465.675 210.279 474.598 196.045C492.443 167.576 517.834 139.091 540.843 117.926L541.272 117.531L541.701 117.926C564.711 139.091 590.1 167.576 607.945 196.045C616.867 210.279 623.916 224.53 627.831 237.876C631.746 251.217 632.544 263.707 628.892 274.379C622.026 294.434 604.777 308.514 584.733 316.376M584.733 316.376C630.531 323.479 672.774 341.606 708.627 367.959C699.88 348.143 697.565 325.834 706.968 306.68C711.628 297.186 720.186 289.326 731.296 282.888C742.409 276.447 756.117 271.404 771.144 267.561C801.198 259.875 836.62 256.965 867.344 257.325C871.441 257.37 875.457 257.48 879.364 257.635L879.948 257.658L879.972 258.242C881.26 289.462 879.05 327.538 871.516 360.274C867.749 376.642 862.646 391.698 855.969 403.901C849.293 416.099 841.017 425.495 830.881 430.462C811.705 439.852 789.371 437.535 769.534 428.796C804.081 475.694 824.535 533.535 824.535 595.971C824.535 737.493 719.462 855.387 583.308 875.793V1078.98M584.733 316.376C584.337 316.531 583.939 316.684 583.541 316.835C630.044 323.859 672.905 342.27 709.156 369.137L583.308 1078.98M709.665 368.725C700.591 348.766 698.081 326.221 707.537 306.959C725.881 269.589 805.964 257.24 867.337 257.959C871.427 258.003 875.437 258.114 879.339 258.268C881.911 320.624 870.504 410.341 830.602 429.892C811.317 439.336 788.747 436.825 768.766 427.758C768.362 427.575 767.96 427.389 767.558 427.201C767.824 427.555 768.09 427.911 768.354 428.267L709.665 368.725Z" stroke="#E06B51" stroke-opacity="0.2"/>
<path d="M342.278 595.982C342.278 485.706 430.878 397.204 541.273 397.204C651.667 397.204 740.267 485.706 740.267 595.982C740.267 706.258 651.667 794.764 541.273 794.764C430.878 794.764 342.278 706.258 342.278 595.982Z" stroke="#E06B51" stroke-opacity="0.2"/>
<path d="M566.211 475.335L662.063 571.085C675.832 584.839 675.832 607.139 662.063 620.893L566.211 716.643C552.442 730.397 530.119 730.397 516.351 716.643L420.499 620.893C406.73 607.139 406.73 584.839 420.499 571.085L516.351 475.335C530.119 461.581 552.443 461.581 566.211 475.335Z" stroke="#E06B51" stroke-opacity="0.2"/>
</svg>
