<svg width="55" height="55" viewBox="0 0 55 55" fill="none" xmlns="http://www.w3.org/2000/svg">
<path d="M27.2111 4.9411e-05C23.6376 6.02973e-05 20.0992 0.703151 16.7978 2.0692C13.4964 3.43525 10.4967 5.43749 7.96988 7.96161C5.4431 10.4857 3.43875 13.4823 2.07128 16.7802C0.703801 20.0781 -1.79358e-05 23.6128 3.42804e-10 27.1824C0.00613907 34.0265 2.5966 40.6164 7.25401 45.636C11.9114 50.6556 18.293 53.7354 25.1242 54.2603V44.0001C18.2842 42.9859 13.0026 37.067 13.0026 29.961C13.0026 26.7851 14.0577 23.8463 15.8351 21.4765C14.8159 21.9549 13.655 22.0959 12.666 21.6115C10.6599 20.6288 10.0863 16.1185 10.2156 12.9838C10.4118 12.9757 10.6133 12.97 10.819 12.9682C13.9043 12.932 17.9303 13.553 18.8528 15.4316C19.3377 16.4196 19.1962 17.5793 18.7171 18.5976C20.5677 17.2124 22.7651 16.2674 25.1512 15.9183C24.101 15.5347 23.1903 14.8173 22.8363 13.7834C22.1133 11.6714 24.9007 8.07709 27.2111 5.95185C29.5215 8.07709 32.3085 11.6714 31.5858 13.7834C31.2317 14.8175 30.321 15.5347 29.2707 15.9183C31.6567 16.2674 33.854 17.2123 35.7046 18.5973C35.2257 17.5791 35.0846 16.4195 35.5696 15.4316C36.4918 13.5529 40.5178 12.9321 43.6031 12.9682C43.8088 12.9704 44.0104 12.976 44.2065 12.9838C44.3358 16.1185 43.7624 20.6288 41.7564 21.6117C40.7673 22.0961 39.6063 21.9549 38.587 21.4764C40.3645 23.8463 41.4195 26.7851 41.4195 29.9609C41.4195 37.0689 36.1351 42.9888 29.2925 44.0007V54.2776C36.1276 53.7538 42.513 50.6721 47.172 45.6487C51.831 40.6253 54.4203 34.0304 54.4221 27.1824C54.4221 23.6128 53.7183 20.0781 52.3509 16.7802C50.9834 13.4823 48.979 10.4857 46.4522 7.96158C43.9255 5.43746 40.9257 3.43522 37.6243 2.06917C34.3229 0.703118 30.7845 1.09997e-05 27.2111 0L27.2111 4.9411e-05Z" fill="#9B51E0"/>
<path d="M27.2111 19.9365C21.6437 19.9365 17.1753 24.4 17.1753 29.9614C17.1753 35.5229 21.6437 39.9866 27.2111 39.9866C32.7785 39.9866 37.2468 35.5229 37.2468 29.9614C37.2468 24.4 32.7785 19.9365 27.2111 19.9365Z" fill="#9B51E0"/>
<path d="M33.3061 28.6873L28.4873 23.8737C27.7827 23.1698 26.6403 23.1698 25.9356 23.8737L21.1169 28.6873C20.4123 29.3912 20.4123 30.5324 21.1169 31.2363L25.9356 36.0499C26.6403 36.7538 27.7827 36.7538 28.4873 36.0499L33.306 31.2363C34.0107 30.5324 34.0107 29.3912 33.3061 28.6873Z" fill="white"/>
</svg>
